<svg width="1440" height="1024" viewBox="0 0 1440 1024" fill="none" xmlns="http://www.w3.org/2000/svg">
<path opacity="0.7" d="M48.999 255.327C48.999 256.8 48.2613 257.537 46.786 257.537C45.3107 257.537 44.5731 256.8 44.5731 255.327C44.5731 253.853 45.3107 253.116 46.786 253.116C47.5237 253.116 48.999 253.853 48.999 255.327Z" fill="white"/>
<path opacity="0.7" d="M139.729 255.327C139.729 256.064 138.991 256.801 138.253 256.801C137.516 256.801 136.778 256.064 136.778 255.327C136.778 254.59 137.516 253.853 138.253 253.853C138.991 253.117 139.729 253.853 139.729 255.327Z" fill="white"/>
<path opacity="0.7" d="M982.862 284.062C982.862 284.799 982.124 285.536 981.386 285.536C980.649 285.536 979.911 284.799 979.911 284.062C979.911 283.326 980.649 282.589 981.386 282.589C982.124 282.589 982.862 283.326 982.862 284.062Z" fill="white"/>
<path opacity="0.7" d="M158.911 167.646C158.911 168.383 158.174 169.12 157.436 169.12C156.698 169.12 155.961 168.383 155.961 167.646C155.961 166.91 156.698 166.173 157.436 166.173C158.174 166.173 158.911 166.91 158.911 167.646Z" fill="white"/>
<path opacity="0.7" d="M155.958 217.012C155.958 217.749 155.221 218.486 154.483 218.486C153.745 218.486 153.008 217.749 153.008 217.012C153.008 216.275 153.745 215.538 154.483 215.538C155.221 215.538 155.958 216.275 155.958 217.012Z" fill="white"/>
<path opacity="0.7" d="M231.197 306.903C231.197 308.377 229.721 309.851 228.246 309.851C226.771 309.851 225.295 308.377 225.295 306.903C225.295 305.43 226.771 303.956 228.246 303.956C230.459 303.956 231.197 305.43 231.197 306.903Z" fill="white"/>
<path opacity="0.7" d="M720.256 43.8621C720.256 44.599 719.518 45.3357 718.781 45.3357C718.043 45.3357 717.305 44.599 717.305 43.8621C717.305 43.1253 718.043 42.3885 718.781 42.3885C719.518 42.3885 720.256 42.3885 720.256 43.8621Z" fill="white"/>
<path opacity="0.7" d="M46.0529 17.3378C46.0529 18.0746 45.3152 18.8114 44.5776 18.8114C43.8399 18.8114 43.1023 18.0746 43.1023 17.3378C43.1023 16.601 43.8399 15.8641 44.5776 15.8641C45.3152 15.8641 46.0529 16.601 46.0529 17.3378Z" fill="white"/>
<path opacity="0.7" d="M529.945 443.96C529.945 444.697 529.208 445.434 528.47 445.434C527.732 445.434 526.995 444.697 526.995 443.96C526.995 443.223 527.732 442.486 528.47 442.486C529.208 442.486 529.945 443.223 529.945 443.96Z" fill="white"/>
<path opacity="0.7" d="M110.964 105.755C110.964 106.492 110.227 107.229 109.489 107.229C108.751 107.229 108.014 106.492 108.014 105.755C108.014 105.018 108.751 104.281 109.489 104.281C110.227 104.281 110.964 105.018 110.964 105.755Z" fill="white"/>
<path opacity="0.7" d="M640.589 24.7046C640.589 26.1782 639.114 27.6519 637.639 27.6519C636.164 27.6519 634.688 26.1782 634.688 24.7046C634.688 23.231 636.164 21.7574 637.639 21.7574C639.852 21.7574 640.589 22.4942 640.589 24.7046Z" fill="white"/>
<path opacity="0.7" d="M157.436 370.27C157.436 372.48 155.223 374.691 153.01 374.691C150.797 374.691 148.584 372.48 148.584 370.27C148.584 368.059 150.797 365.849 153.01 365.849C155.223 366.586 157.436 368.059 157.436 370.27Z" fill="white"/>
<path opacity="0.7" d="M25.3945 294.377C25.3945 295.113 24.6569 295.85 23.9193 295.85C23.1816 295.85 22.444 295.113 22.444 294.377C22.444 293.64 23.1816 292.903 23.9193 292.903C24.6569 292.166 25.3945 292.903 25.3945 294.377Z" fill="white"/>
<path opacity="0.7" d="M116.129 417.424C116.129 418.161 115.391 418.898 114.653 418.898C113.916 418.898 113.178 418.161 113.178 417.424C113.178 416.687 113.916 415.951 114.653 415.951C115.391 415.951 116.129 416.687 116.129 417.424Z" fill="white"/>
<path opacity="0.7" d="M828.69 250.169C828.69 250.906 827.953 251.642 827.215 251.642C826.478 251.642 825.74 250.906 825.74 250.169C825.74 249.432 826.478 248.695 827.215 248.695C827.953 248.695 828.69 249.432 828.69 250.169Z" fill="white"/>
<path opacity="0.7" d="M872.95 410.056C872.95 410.793 872.212 411.53 871.475 411.53C870.737 411.53 869.999 410.793 869.999 410.056C869.999 409.319 870.737 408.583 871.475 408.583C872.212 408.583 872.95 409.319 872.95 410.056Z" fill="white"/>
<path opacity="0.7" d="M650.18 400.479C650.18 401.215 649.442 401.952 648.705 401.952C647.967 401.952 647.229 401.215 647.229 400.479C647.229 399.742 647.967 399.005 648.705 399.005C649.442 399.005 650.18 399.742 650.18 400.479Z" fill="white"/>
<path opacity="0.7" d="M960.731 336.376C960.731 337.113 959.994 337.85 959.256 337.85C958.518 337.85 957.781 337.113 957.781 336.376C957.781 335.639 958.518 334.903 959.256 334.903C959.994 334.166 960.731 334.903 960.731 336.376Z" fill="white"/>
<path opacity="0.7" d="M834.595 348.901C834.595 350.375 833.12 351.848 831.645 351.848C830.169 351.848 828.694 350.375 828.694 348.901C828.694 347.427 830.169 345.954 831.645 345.954C833.12 345.954 834.595 347.427 834.595 348.901Z" fill="white"/>
<path opacity="0.7" d="M784.43 198.593C784.43 200.066 782.955 201.54 781.48 201.54C780.004 201.54 778.529 200.066 778.529 198.593C778.529 197.119 780.004 195.645 781.48 195.645C782.955 195.645 784.43 197.119 784.43 198.593Z" fill="white"/>
<path opacity="0.7" d="M833.857 426.267C833.857 427.004 833.119 427.741 832.381 427.741C831.644 427.741 830.906 427.004 830.906 426.267C830.906 425.53 831.644 424.793 832.381 424.793C833.119 424.793 833.857 425.53 833.857 426.267Z" fill="white"/>
<path opacity="0.7" d="M872.95 17.3378C872.95 18.0746 872.212 18.8114 871.475 18.8114C870.737 18.8114 869.999 18.0746 869.999 17.3378C869.999 16.601 870.737 15.8641 871.475 15.8641C872.212 15.8641 872.95 16.601 872.95 17.3378Z" fill="white"/>
<path opacity="0.7" d="M864.096 114.596C864.096 115.333 863.359 116.07 862.621 116.07C861.884 116.07 861.146 115.333 861.146 114.596C861.146 113.859 861.884 113.123 862.621 113.123C863.359 113.123 864.096 113.859 864.096 114.596Z" fill="white"/>
<path opacity="0.7" d="M710.665 177.961C710.665 179.435 709.19 180.909 707.715 180.909C706.24 180.909 704.764 179.435 704.764 177.961C704.764 176.488 706.24 175.014 707.715 175.014C709.19 175.014 710.665 176.488 710.665 177.961Z" fill="white"/>
<path opacity="0.7" d="M672.309 292.904C672.309 293.641 671.571 294.378 670.834 294.378C670.096 294.378 669.358 293.641 669.358 292.904C669.358 292.167 670.096 291.43 670.834 291.43C671.571 291.43 672.309 292.167 672.309 292.904Z" fill="white"/>
<path opacity="0.7" d="M445.117 256.8C445.117 259.01 442.904 261.221 440.691 261.221C438.479 261.221 436.266 259.01 436.266 256.8C436.266 254.589 438.479 252.379 440.691 252.379C442.904 253.116 445.117 254.589 445.117 256.8Z" fill="white"/>
<path opacity="0.7" d="M393.481 250.169C393.481 250.906 392.743 251.642 392.006 251.642C391.268 251.642 390.53 250.906 390.53 250.169C390.53 249.432 391.268 248.695 392.006 248.695C392.743 248.695 393.481 249.432 393.481 250.169Z" fill="white"/>
<path opacity="0.7" d="M302.752 74.8085C302.752 75.5453 302.014 76.2822 301.277 76.2822C300.539 76.2822 299.801 75.5453 299.801 74.8085C299.801 74.0717 300.539 73.3349 301.277 73.3349C302.014 72.5981 302.752 73.3349 302.752 74.8085Z" fill="white"/>
<path opacity="0.7" d="M438.475 410.056C438.475 410.793 437.738 411.53 437 411.53C436.262 411.53 435.525 410.793 435.525 410.056C435.525 409.319 436.262 408.583 437 408.583C437.738 408.583 438.475 409.319 438.475 410.056Z" fill="white"/>
<path opacity="0.7" d="M352.91 373.953C352.91 374.69 352.173 375.427 351.435 375.427C350.697 375.427 349.96 374.69 349.96 373.953C349.96 373.216 350.697 372.479 351.435 372.479C352.173 372.479 352.91 373.216 352.91 373.953Z" fill="white"/>
<path opacity="0.7" d="M548.387 434.371C548.387 435.108 547.649 435.845 546.911 435.845C546.174 435.845 545.436 435.108 545.436 434.371C545.436 433.634 546.174 432.897 546.911 432.897C547.649 432.897 548.387 433.634 548.387 434.371Z" fill="white"/>
<path opacity="0.7" d="M313.076 338.585C313.076 339.322 312.338 340.059 311.601 340.059C310.863 340.059 310.125 339.322 310.125 338.585C310.125 337.848 310.863 337.112 311.601 337.112C312.338 336.375 313.076 337.112 313.076 338.585Z" fill="white"/>
<path opacity="0.7" d="M548.387 217.012C548.387 217.749 547.649 218.486 546.911 218.486C546.174 218.486 545.436 217.749 545.436 217.012C545.436 216.275 546.174 215.538 546.911 215.538C547.649 215.538 548.387 216.275 548.387 217.012Z" fill="white"/>
<path opacity="0.7" d="M382.416 177.961C382.416 178.698 381.678 179.435 380.941 179.435C380.203 179.435 379.465 178.698 379.465 177.961C379.465 177.224 380.203 176.488 380.941 176.488C381.678 176.488 382.416 177.224 382.416 177.961Z" fill="white"/>
<path opacity="0.7" d="M200.22 256.8C200.22 258.273 198.745 259.747 197.27 259.747C195.795 259.747 194.319 258.273 194.319 256.8C194.319 255.326 195.795 253.852 197.27 253.852C198.745 253.852 200.22 255.326 200.22 256.8Z" fill="white"/>
<path opacity="0.7" d="M230.462 217.013C230.462 218.486 228.987 219.96 227.511 219.96C226.036 219.96 224.561 218.486 224.561 217.013C224.561 215.539 226.036 214.066 227.511 214.066C228.987 214.066 230.462 215.539 230.462 217.013Z" fill="white"/>
<path opacity="0.7" d="M206.121 414.478C206.121 415.952 204.646 417.425 203.17 417.425C201.695 417.425 200.22 415.952 200.22 414.478C200.22 413.004 201.695 411.531 203.17 411.531C204.646 411.531 206.121 413.004 206.121 414.478Z" fill="white"/>
<path opacity="0.7" d="M349.219 198.593C349.219 200.066 347.744 201.54 346.269 201.54C344.794 201.54 343.318 200.066 343.318 198.593C343.318 197.119 344.794 195.645 346.269 195.645C347.744 195.645 349.219 197.119 349.219 198.593Z" fill="white"/>
<path opacity="0.7" d="M285.045 396.794C285.045 398.267 284.307 399.004 282.832 399.004C281.356 399.004 280.619 398.267 280.619 396.794C280.619 395.32 281.356 394.583 282.832 394.583C284.307 394.583 285.045 395.32 285.045 396.794Z" fill="white"/>
<path opacity="0.7" d="M499.699 312.061C499.699 314.271 497.486 316.482 495.274 316.482C493.061 316.482 490.848 314.271 490.848 312.061C490.848 309.85 493.061 307.64 495.274 307.64C498.224 307.64 499.699 309.113 499.699 312.061Z" fill="white"/>
<path opacity="0.7" d="M289.474 161.752C289.474 163.226 288.737 163.963 287.261 163.963C285.786 163.963 285.048 163.226 285.048 161.752C285.048 160.279 285.786 159.542 287.261 159.542C287.999 159.542 289.474 160.279 289.474 161.752Z" fill="white"/>
<path opacity="0.7" d="M250.375 76.2823C250.375 77.0191 249.637 77.7559 248.9 77.7559C248.162 77.7559 247.424 77.0191 247.424 76.2823C247.424 75.5455 248.162 74.8087 248.9 74.8087C249.637 74.8087 250.375 75.5455 250.375 76.2823Z" fill="white"/>
<path opacity="0.7" d="M438.475 17.3378C438.475 18.0746 437.738 18.8114 437 18.8114C436.262 18.8114 435.525 18.0746 435.525 17.3378C435.525 16.601 436.262 15.8641 437 15.8641C437.738 15.8641 438.475 16.601 438.475 17.3378Z" fill="white"/>
<path opacity="0.7" d="M429.628 114.596C429.628 115.333 428.89 116.07 428.153 116.07C427.415 116.07 426.677 115.333 426.677 114.596C426.677 113.859 427.415 113.123 428.153 113.123C428.89 113.123 429.628 113.859 429.628 114.596Z" fill="white"/>
<path opacity="0.7" d="M501.917 107.229C502.732 107.229 503.393 106.569 503.393 105.755C503.393 104.941 502.732 104.281 501.917 104.281C501.103 104.281 500.442 104.941 500.442 105.755C500.442 106.569 501.103 107.229 501.917 107.229Z" fill="white"/>
<path opacity="0.7" d="M374.303 111.648C374.303 113.122 372.827 114.595 371.352 114.595C369.877 114.595 368.401 113.122 368.401 111.648C368.401 110.175 369.877 108.701 371.352 108.701C373.565 108.701 374.303 110.175 374.303 111.648Z" fill="white"/>
<path opacity="0.7" d="M324.879 72.5974C324.879 74.0711 323.403 75.5447 321.928 75.5447C320.453 75.5447 318.977 74.0711 318.977 72.5974C318.977 71.1238 320.453 69.6502 321.928 69.6502C324.141 69.6502 324.879 70.387 324.879 72.5974Z" fill="white"/>
<path opacity="0.7" d="M206.121 22.4951C206.121 23.9687 204.646 25.4423 203.17 25.4423C201.695 25.4423 200.22 23.9687 200.22 22.4951C200.22 21.0215 201.695 19.5478 203.17 19.5478C204.646 19.5478 206.121 20.2846 206.121 22.4951Z" fill="white"/>
<path opacity="0.7" d="M285.045 4.07408C285.045 5.54771 284.307 6.28451 282.832 6.28451C281.356 6.28451 280.619 5.54771 280.619 4.07408C280.619 2.60045 281.356 1.86365 282.832 1.86365C284.307 1.86365 285.045 3.33727 285.045 4.07408Z" fill="white"/>
<path opacity="0.7" d="M247.427 109.439C247.427 110.912 246.689 111.649 245.214 111.649C243.739 111.649 243.001 110.912 243.001 109.439C243.001 107.965 243.739 107.228 245.214 107.228C245.952 107.228 247.427 107.965 247.427 109.439Z" fill="white"/>
<path opacity="0.7" d="M379.468 59.3349C379.468 60.8086 378.73 61.5454 377.255 61.5454C375.779 61.5454 375.042 60.8086 375.042 59.3349C375.042 57.8613 375.779 57.1245 377.255 57.1245C377.992 57.1245 379.468 57.8613 379.468 59.3349Z" fill="white"/>
<path opacity="0.7" d="M197.265 99.8594C197.265 102.07 195.052 104.28 192.84 104.28C190.627 104.28 188.414 102.07 188.414 99.8594C188.414 97.6489 190.627 95.4385 192.84 95.4385C195.79 95.4385 197.265 97.6489 197.265 99.8594Z" fill="white"/>
<path opacity="0.7" d="M414.134 351.848C414.134 352.585 413.397 353.322 412.659 353.322C411.921 353.322 411.184 352.585 411.184 351.848C411.184 351.112 411.921 350.375 412.659 350.375C413.397 350.375 414.134 351.112 414.134 351.848Z" fill="white"/>
<path opacity="0.7" d="M255.539 429.951C255.539 431.424 254.802 432.161 253.326 432.161C251.851 432.161 251.113 431.424 251.113 429.951C251.113 428.477 251.851 427.74 253.326 427.74C254.802 427.74 255.539 428.477 255.539 429.951Z" fill="white"/>
<path opacity="0.7" d="M461.347 170.594C461.347 172.804 459.134 175.014 456.921 175.014C454.708 175.014 452.495 172.804 452.495 170.594C452.495 168.383 454.708 166.173 456.921 166.173C459.134 166.173 461.347 168.383 461.347 170.594Z" fill="white"/>
<path opacity="0.7" d="M502.655 102.807C502.655 104.28 501.179 105.754 499.704 105.754C498.229 105.754 496.753 104.28 496.753 102.807C496.753 101.333 498.229 99.8596 499.704 99.8596C501.917 99.8596 502.655 101.333 502.655 102.807Z" fill="white"/>
<path opacity="0.7" d="M529.207 186.803C529.207 188.276 527.732 189.75 526.257 189.75C524.781 189.75 523.306 188.276 523.306 186.803C523.306 185.329 524.781 183.856 526.257 183.856C527.732 183.856 529.207 185.329 529.207 186.803Z" fill="white"/>
<path opacity="0.7" d="M579.368 201.539C579.368 203.013 578.63 203.75 577.155 203.75C575.679 203.75 574.942 203.013 574.942 201.539C574.942 200.066 575.679 199.329 577.155 199.329C577.892 199.329 579.368 200.803 579.368 201.539Z" fill="white"/>
<path opacity="0.7" d="M794.023 116.07C794.023 115.333 794.76 114.596 795.498 114.596C796.236 114.596 796.973 115.333 796.973 116.07C796.973 116.807 796.236 117.543 795.498 117.543C794.76 118.28 794.023 117.543 794.023 116.07Z" fill="white"/>
<path opacity="0.7" d="M639.118 149.963C639.118 149.227 639.856 148.49 640.594 148.49C641.331 148.49 642.069 149.227 642.069 149.963C642.069 150.7 641.331 151.437 640.594 151.437C639.856 151.437 639.118 150.7 639.118 149.963Z" fill="white"/>
<path opacity="0.7" d="M788.123 18.074C788.123 16.6004 789.599 15.1268 791.074 15.1268C792.549 15.1268 794.025 16.6004 794.025 18.074C794.025 19.5476 792.549 21.0212 791.074 21.0212C789.599 21.0212 788.123 19.5476 788.123 18.074Z" fill="white"/>
<path opacity="0.7" d="M758.617 252.379C758.617 251.642 759.355 250.905 760.092 250.905C760.83 250.905 761.568 251.642 761.568 252.379C761.568 253.116 760.83 253.853 760.092 253.853C759.355 253.853 758.617 253.116 758.617 252.379Z" fill="white"/>
<path opacity="0.7" d="M788.123 410.056C788.123 408.583 789.599 407.109 791.074 407.109C792.549 407.109 794.025 408.583 794.025 410.056C794.025 411.53 792.549 413.004 791.074 413.004C789.599 413.004 788.123 412.267 788.123 410.056Z" fill="white"/>
<path opacity="0.7" d="M661.247 49.7568C661.247 48.2832 662.723 46.8096 664.198 46.8096C665.673 46.8096 667.149 48.2832 667.149 49.7568C667.149 51.2304 665.673 52.704 664.198 52.704C662.723 52.704 661.247 51.2304 661.247 49.7568Z" fill="white"/>
<path opacity="0.7" d="M589.694 344.481C589.694 343.007 591.17 341.533 592.645 341.533C594.12 341.533 595.595 343.007 595.595 344.481C595.595 345.954 594.12 347.428 592.645 347.428C590.432 347.428 589.694 345.954 589.694 344.481Z" fill="white"/>
<path opacity="0.7" d="M598.548 267.116C598.548 264.906 600.761 262.695 602.974 262.695C605.187 262.695 607.399 264.906 607.399 267.116C607.399 269.326 605.187 271.537 602.974 271.537C600.023 270.8 598.548 269.326 598.548 267.116Z" fill="white"/>
<path opacity="0.7" d="M1148.09 255.327C1148.09 256.8 1147.35 257.537 1145.88 257.537C1144.4 257.537 1143.66 256.8 1143.66 255.327C1143.66 253.853 1144.4 253.116 1145.88 253.116C1146.61 253.116 1148.09 253.853 1148.09 255.327Z" fill="white"/>
<path opacity="0.7" d="M1100.88 250.169C1100.88 250.906 1100.15 251.642 1099.41 251.642C1098.67 251.642 1097.93 250.906 1097.93 250.169C1097.93 249.432 1098.67 248.695 1099.41 248.695C1100.15 248.695 1100.88 249.432 1100.88 250.169Z" fill="white"/>
<path opacity="0.7" d="M1238.82 255.327C1238.82 256.064 1238.08 256.801 1237.34 256.801C1236.61 256.801 1235.87 256.064 1235.87 255.327C1235.87 254.59 1236.61 253.853 1237.34 253.853C1238.08 253.117 1238.82 253.853 1238.82 255.327Z" fill="white"/>
<path opacity="0.7" d="M1145.14 410.056C1145.14 410.793 1144.41 411.53 1143.67 411.53C1142.93 411.53 1142.19 410.793 1142.19 410.056C1142.19 409.319 1142.93 408.583 1143.67 408.583C1144.41 408.583 1145.14 409.319 1145.14 410.056Z" fill="white"/>
<path opacity="0.7" d="M1420.28 312.061C1420.28 312.798 1419.55 313.535 1418.81 313.535C1418.07 313.535 1417.33 312.798 1417.33 312.061C1417.33 311.325 1418.07 310.588 1418.81 310.588C1419.55 309.851 1420.28 310.588 1420.28 312.061Z" fill="white"/>
<path opacity="0.7" d="M1255.05 217.012C1255.05 217.749 1254.31 218.486 1253.57 218.486C1252.84 218.486 1252.1 217.749 1252.1 217.012C1252.1 216.275 1252.84 215.538 1253.57 215.538C1254.31 215.538 1255.05 216.275 1255.05 217.012Z" fill="white"/>
<path opacity="0.7" d="M1089.82 177.961C1089.82 178.698 1089.08 179.435 1088.34 179.435C1087.61 179.435 1086.87 178.698 1086.87 177.961C1086.87 177.224 1087.61 176.488 1088.34 176.488C1089.08 176.488 1089.82 177.224 1089.82 177.961Z" fill="white"/>
<path opacity="0.7" d="M1062.52 276.694C1062.52 278.168 1061.79 278.904 1060.31 278.904C1058.84 278.904 1058.1 278.168 1058.1 276.694C1058.1 275.22 1058.84 274.484 1060.31 274.484C1061.05 274.484 1062.52 275.22 1062.52 276.694Z" fill="white"/>
<path opacity="0.7" d="M937.865 217.013C937.865 218.486 936.39 219.96 934.915 219.96C933.44 219.96 931.964 218.486 931.964 217.013C931.964 215.539 933.44 214.066 934.915 214.066C936.39 214.066 937.865 215.539 937.865 217.013Z" fill="white"/>
<path opacity="0.7" d="M1056.62 198.593C1056.62 200.066 1055.15 201.54 1053.67 201.54C1052.2 201.54 1050.72 200.066 1050.72 198.593C1050.72 197.119 1052.2 195.645 1053.67 195.645C1055.15 195.645 1056.62 197.119 1056.62 198.593Z" fill="white"/>
<path opacity="0.7" d="M1145.14 17.3378C1145.14 18.0746 1144.41 18.8114 1143.67 18.8114C1142.93 18.8114 1142.19 18.0746 1142.19 17.3378C1142.19 16.601 1142.93 15.8641 1143.67 15.8641C1144.41 15.8641 1145.14 16.601 1145.14 17.3378Z" fill="white"/>
<path opacity="0.7" d="M1136.29 114.596C1136.29 115.333 1135.55 116.07 1134.82 116.07C1134.08 116.07 1133.34 115.333 1133.34 114.596C1133.34 113.859 1134.08 113.123 1134.82 113.123C1135.55 113.123 1136.29 113.859 1136.29 114.596Z" fill="white"/>
<path opacity="0.7" d="M1210.05 105.755C1210.05 106.492 1209.32 107.229 1208.58 107.229C1207.84 107.229 1207.1 106.492 1207.1 105.755C1207.1 105.018 1207.84 104.281 1208.58 104.281C1209.32 104.281 1210.05 105.018 1210.05 105.755Z" fill="white"/>
<path opacity="0.7" d="M1081.71 111.648C1081.71 113.122 1080.23 114.595 1078.76 114.595C1077.28 114.595 1075.8 113.122 1075.8 111.648C1075.8 110.175 1077.28 108.701 1078.76 108.701C1080.23 108.701 1081.71 110.175 1081.71 111.648Z" fill="white"/>
<path opacity="0.7" d="M1032.28 72.5974C1032.28 74.0711 1030.81 75.5447 1029.33 75.5447C1027.86 75.5447 1026.38 74.0711 1026.38 72.5974C1026.38 71.1238 1027.86 69.6502 1029.33 69.6502C1030.81 69.6502 1032.28 70.387 1032.28 72.5974Z" fill="white"/>
<path opacity="0.7" d="M913.518 22.4951C913.518 23.9687 912.043 25.4423 910.568 25.4423C909.092 25.4423 907.617 23.9687 907.617 22.4951C907.617 21.0215 909.092 19.5478 910.568 19.5478C912.043 19.5478 913.518 20.2846 913.518 22.4951Z" fill="white"/>
<path opacity="0.7" d="M991.713 4.07408C991.713 5.54771 990.976 6.28451 989.5 6.28451C988.025 6.28451 987.287 5.54771 987.287 4.07408C987.287 2.60045 988.025 1.86365 989.5 1.86365C990.976 1.86365 991.713 3.33727 991.713 4.07408Z" fill="white"/>
<path opacity="0.7" d="M1124.48 294.377C1124.48 295.113 1123.75 295.85 1123.01 295.85C1122.27 295.85 1121.53 295.113 1121.53 294.377C1121.53 293.64 1122.27 292.903 1123.01 292.903C1123.75 292.166 1124.48 292.903 1124.48 294.377Z" fill="white"/>
<path opacity="0.7" d="M687.8 348.165C687.8 349.638 686.325 351.112 684.85 351.112C683.374 351.112 681.899 349.638 681.899 348.165C681.899 346.691 683.374 345.218 684.85 345.218C686.325 345.218 687.8 345.954 687.8 348.165Z" fill="white"/>
<path opacity="0.7" d="M1262.42 414.477C1262.42 415.214 1261.69 415.951 1260.95 415.951C1260.21 415.951 1259.47 415.214 1259.47 414.477C1259.47 413.74 1260.21 413.004 1260.95 413.004C1261.69 413.004 1262.42 413.74 1262.42 414.477Z" fill="white"/>
<path opacity="0.7" d="M962.943 429.951C962.943 431.424 962.205 432.161 960.73 432.161C959.254 432.161 958.517 431.424 958.517 429.951C958.517 428.477 959.254 427.74 960.73 427.74C962.205 427.74 962.943 428.477 962.943 429.951Z" fill="white"/>
<path opacity="0.7" d="M1401.84 74.8085C1401.84 75.5453 1401.1 76.2822 1400.37 76.2822C1399.63 76.2822 1398.89 75.5453 1398.89 74.8085C1398.89 74.0717 1399.63 73.3349 1400.37 73.3349C1401.1 72.5981 1401.84 73.3349 1401.84 74.8085Z" fill="white"/>
<path opacity="0.7" d="M1299.31 256.8C1299.31 258.273 1297.83 259.747 1296.36 259.747C1294.88 259.747 1293.41 258.273 1293.41 256.8C1293.41 255.326 1294.88 253.852 1296.36 253.852C1297.83 253.852 1299.31 255.326 1299.31 256.8Z" fill="white"/>
<path opacity="0.7" d="M1329.55 217.013C1329.55 218.486 1328.08 219.96 1326.6 219.96C1325.13 219.96 1323.65 218.486 1323.65 217.013C1323.65 215.539 1325.13 214.066 1326.6 214.066C1328.81 214.066 1329.55 215.539 1329.55 217.013Z" fill="white"/>
<path opacity="0.7" d="M1305.21 414.478C1305.21 415.952 1303.74 417.425 1302.26 417.425C1300.78 417.425 1299.31 415.952 1299.31 414.478C1299.31 413.004 1300.78 411.531 1302.26 411.531C1303.74 411.531 1305.21 413.004 1305.21 414.478Z" fill="white"/>
<path opacity="0.7" d="M1384.14 396.794C1384.14 398.267 1383.4 399.004 1381.92 399.004C1380.45 399.004 1379.71 398.267 1379.71 396.794C1379.71 395.32 1380.45 394.583 1381.92 394.583C1383.4 394.583 1384.14 395.32 1384.14 396.794Z" fill="white"/>
<path opacity="0.7" d="M1388.56 161.752C1388.56 163.226 1387.83 163.963 1386.35 163.963C1384.88 163.963 1384.14 163.226 1384.14 161.752C1384.14 160.279 1384.88 159.542 1386.35 159.542C1387.83 159.542 1388.56 160.279 1388.56 161.752Z" fill="white"/>
<path opacity="0.7" d="M1420.28 703.975C1420.28 704.711 1419.55 705.448 1418.81 705.448C1418.07 705.448 1417.33 704.711 1417.33 703.975C1417.33 703.238 1418.07 702.501 1418.81 702.501C1419.55 701.764 1420.28 702.501 1420.28 703.975Z" fill="white"/>
<path opacity="0.7" d="M1401.84 466.722C1401.84 467.458 1401.1 468.195 1400.37 468.195C1399.63 468.195 1398.89 467.458 1398.89 466.722C1398.89 465.985 1399.63 465.248 1400.37 465.248C1401.1 464.511 1401.84 465.248 1401.84 466.722Z" fill="white"/>
<path opacity="0.7" d="M1299.31 648.713C1299.31 650.186 1297.83 651.66 1296.36 651.66C1294.88 651.66 1293.41 650.186 1293.41 648.713C1293.41 647.239 1294.88 645.766 1296.36 645.766C1297.83 645.766 1299.31 647.239 1299.31 648.713Z" fill="white"/>
<path opacity="0.7" d="M1329.55 608.926C1329.55 610.4 1328.08 611.873 1326.6 611.873C1325.13 611.873 1323.65 610.4 1323.65 608.926C1323.65 607.452 1325.13 605.979 1326.6 605.979C1328.81 605.979 1329.55 607.452 1329.55 608.926Z" fill="white"/>
<path opacity="0.7" d="M1388.56 553.666C1388.56 555.139 1387.83 555.876 1386.35 555.876C1384.88 555.876 1384.14 555.139 1384.14 553.666C1384.14 552.192 1384.88 551.455 1386.35 551.455C1387.83 551.455 1388.56 552.192 1388.56 553.666Z" fill="white"/>
<path opacity="0.7" d="M505.605 375.427C505.605 377.637 503.392 379.848 501.179 379.848C498.966 379.848 496.753 377.637 496.753 375.427C496.753 373.216 498.966 371.006 501.179 371.006C504.13 371.743 505.605 373.216 505.605 375.427Z" fill="white"/>
<g opacity="0.7">
<path opacity="0.7" d="M588.96 46.0722L589.697 61.5452L605.926 63.0188L590.435 63.7556L588.96 79.9655L587.484 63.7556L571.994 63.0188L587.484 61.5452L588.96 46.0722Z" fill="white"/>
<path opacity="0.7" d="M595.597 55.651L590.434 62.2823L595.597 69.6504L588.959 63.7559L581.582 70.3872L587.483 63.0191L581.582 55.651L588.959 61.5455L595.597 55.651Z" fill="white"/>
</g>
<g opacity="0.7">
<path opacity="0.7" d="M421.514 14.3894L422.989 29.8624L438.48 31.336L422.989 32.0728L421.514 48.2826L420.039 32.0728L404.548 31.336L420.039 29.8624L421.514 14.3894Z" fill="white"/>
<path opacity="0.7" d="M428.152 23.9682L422.988 31.3363L428.152 37.9676L421.513 32.8099L414.137 38.7044L420.775 31.3363L414.137 24.705L421.513 29.8627L428.152 23.9682Z" fill="white"/>
</g>
<g opacity="0.7">
<path opacity="0.7" d="M528.473 421.11L529.211 431.425L540.275 432.899H529.211L528.473 444.688L527.735 432.899H516.671L527.735 431.425L528.473 421.11Z" fill="white"/>
<path opacity="0.7" d="M532.901 427.74L529.213 432.161L532.901 437.319L528.475 432.898L523.312 437.319L527.738 432.161L523.312 427.74L528.475 431.424L532.901 427.74Z" fill="white"/>
</g>
<g opacity="0.7">
<path opacity="0.7" d="M160.387 -6.97778L161.124 3.33756L172.189 4.81115H161.862L160.387 16.6001L159.649 4.81115H148.584L159.649 3.33756L160.387 -6.97778Z" fill="white"/>
<path opacity="0.7" d="M165.552 -0.347107L161.864 4.07373L165.552 9.2314L160.389 5.54736L155.225 9.2314L159.651 4.81053L155.225 -0.347107L160.389 3.33694L165.552 -0.347107Z" fill="white"/>
</g>
<g opacity="0.7">
<path opacity="0.7" d="M846.396 -18.7675L847.133 -8.45221L858.198 -6.97859H847.133L846.396 4.81034L845.658 -6.97859H834.593L845.658 -8.45221L846.396 -18.7675Z" fill="white"/>
</g>
<g opacity="0.7">
<path opacity="0.7" d="M1162.85 378.374L1164.32 393.11L1179.81 395.321H1164.32L1162.85 412.267L1161.37 395.321H1145.88L1161.37 393.11L1162.85 378.374Z" fill="white"/>
<path opacity="0.7" d="M1169.48 387.215L1164.32 394.583L1169.48 401.952L1162.85 396.057L1155.47 401.952L1162.11 394.583L1155.47 387.952L1162.85 393.11L1169.48 387.215Z" fill="white"/>
</g>
<g opacity="0.7">
<path opacity="0.7" d="M1269.81 -6.97778L1270.54 3.33756L1281.61 4.81115H1270.54L1269.81 16.6001L1269.07 4.81115H1258L1269.07 3.33756L1269.81 -6.97778Z" fill="white"/>
<path opacity="0.7" d="M1274.23 -0.347107L1270.55 4.07373L1274.23 9.2314L1269.81 5.54736L1264.65 9.2314L1269.07 4.81053L1264.65 -0.347107L1269.81 3.33694L1274.23 -0.347107Z" fill="white"/>
</g>
<g opacity="0.7">
<path opacity="0.7" d="M1034.5 238.38L1035.23 249.432L1046.3 250.169L1035.23 250.906L1034.5 261.958L1033.76 250.906L1022.69 250.169L1033.76 249.432L1034.5 238.38Z" fill="white"/>
<path opacity="0.7" d="M1038.92 245.011L1035.24 250.169L1038.92 255.326L1034.5 250.906L1029.33 255.326L1033.76 250.169L1029.33 245.748L1034.5 249.432L1038.92 245.011Z" fill="white"/>
</g>
<g opacity="0.7">
<path opacity="0.7" d="M878.113 306.904L878.85 317.956L889.915 318.693L878.85 319.429L878.113 330.482L877.375 319.429L866.31 318.693L877.375 317.956L878.113 306.904Z" fill="white"/>
<path opacity="0.7" d="M882.541 313.534L878.853 318.692L882.541 323.85L878.115 319.429L872.952 323.85L877.378 318.692L872.952 314.271L878.115 317.955L882.541 313.534Z" fill="white"/>
</g>
<g opacity="0.7">
<path opacity="0.7" d="M945.242 15.1268L946.717 25.4421L957.045 26.9157H946.717L945.242 38.7047L944.505 26.9157H933.44L944.505 25.4421L945.242 15.1268Z" fill="white"/>
<path opacity="0.7" d="M950.408 21.7575L946.72 26.1783L950.408 31.336L945.982 27.6519L940.081 31.336L944.507 26.9151L940.081 21.7575L945.245 25.4415L950.408 21.7575Z" fill="white"/>
</g>
<path opacity="0.7" d="M1193.63 828.995C1193.63 827.521 1194.37 826.784 1195.85 826.784C1197.32 826.784 1198.06 827.521 1198.06 828.995C1198.06 830.468 1197.32 831.205 1195.85 831.205C1195.11 831.205 1193.63 830.468 1193.63 828.995Z" fill="white"/>
<path opacity="0.7" d="M1103.03 824.095C1103.03 823.359 1103.77 822.622 1104.5 822.622C1105.24 822.622 1105.98 823.359 1105.98 824.095C1105.98 824.832 1105.24 825.569 1104.5 825.569C1103.77 826.306 1103.03 825.569 1103.03 824.095Z" fill="white"/>
<path opacity="0.7" d="M1288.38 715.239C1288.38 714.503 1289.11 713.766 1289.85 713.766C1290.59 713.766 1291.33 714.503 1291.33 715.239C1291.33 715.976 1290.59 716.713 1289.85 716.713C1289.11 716.713 1288.38 715.976 1288.38 715.239Z" fill="white"/>
<path opacity="0.7" d="M262.651 750.248C262.651 749.511 263.389 748.775 264.126 748.775C264.864 748.775 265.602 749.511 265.602 750.248C265.602 750.985 264.864 751.722 264.126 751.722C263.389 751.722 262.651 750.985 262.651 750.248Z" fill="white"/>
<path opacity="0.7" d="M1079.18 910.623C1079.18 909.886 1079.92 909.15 1080.66 909.15C1081.4 909.15 1082.14 909.886 1082.14 910.623C1082.14 911.36 1081.4 912.097 1080.66 912.097C1079.92 912.097 1079.18 911.36 1079.18 910.623Z" fill="white"/>
<path opacity="0.7" d="M1084.78 861.487C1084.78 860.75 1085.51 860.013 1086.25 860.013C1086.99 860.013 1087.73 860.75 1087.73 861.487C1087.73 862.223 1086.99 862.96 1086.25 862.96C1085.51 862.96 1084.78 862.223 1084.78 861.487Z" fill="white"/>
<path opacity="0.7" d="M1014.46 767.774C1014.46 766.3 1015.93 764.827 1017.41 764.827C1018.88 764.827 1020.36 766.3 1020.36 767.774C1020.36 769.248 1018.88 770.721 1017.41 770.721C1015.2 770.721 1014.46 769.248 1014.46 767.774Z" fill="white"/>
<path opacity="0.7" d="M1382.71 912.223C1382.71 910.749 1384.18 909.276 1385.66 909.276C1387.13 909.276 1388.61 910.749 1388.61 912.223C1388.61 913.697 1387.13 915.17 1385.66 915.17C1384.18 915.17 1382.71 913.697 1382.71 912.223Z" fill="white"/>
<path opacity="0.7" d="M1437.12 682.713C1437.12 681.239 1438.6 679.765 1440.08 679.765C1441.55 679.765 1443.03 681.239 1443.03 682.713C1443.03 684.186 1441.55 685.66 1440.08 685.66C1437.86 685.66 1437.12 684.186 1437.12 682.713Z" fill="white"/>
<path opacity="0.7" d="M1281.93 890.585C1281.93 889.111 1283.4 887.638 1284.88 887.638C1286.35 887.638 1287.83 889.111 1287.83 890.585C1287.83 892.059 1286.35 893.532 1284.88 893.532C1283.4 893.532 1281.93 892.059 1281.93 890.585Z" fill="white"/>
<path opacity="0.7" d="M1357.36 696.105C1357.36 694.631 1358.1 693.895 1359.58 693.895C1361.05 693.895 1361.79 694.631 1361.79 696.105C1361.79 697.578 1361.05 698.315 1359.58 698.315C1358.1 698.315 1357.36 697.578 1357.36 696.105Z" fill="white"/>
<path opacity="0.7" d="M1302.54 988.312C1302.54 986.839 1303.28 986.102 1304.75 986.102C1306.23 986.102 1306.97 986.839 1306.97 988.312C1306.97 989.786 1306.23 990.523 1304.75 990.523C1303.28 990.523 1302.54 989.049 1302.54 988.312Z" fill="white"/>
<path opacity="0.7" d="M512.016 1004.17C512.016 1003.43 512.754 1002.69 513.492 1002.69C514.229 1002.69 514.967 1003.43 514.967 1004.17C514.967 1004.9 514.229 1005.64 513.492 1005.64C512.754 1005.64 512.016 1005.64 512.016 1004.17Z" fill="white"/>
<path opacity="0.7" d="M1123.75 974.994C1123.75 974.257 1124.49 973.52 1125.22 973.52C1125.96 973.52 1126.7 974.257 1126.7 974.994C1126.7 975.731 1125.96 976.467 1125.22 976.467C1124.49 976.467 1123.75 975.731 1123.75 974.994Z" fill="white"/>
<path opacity="0.7" d="M1259.9 653.944C1259.9 653.208 1260.64 652.471 1261.38 652.471C1262.11 652.471 1262.85 653.208 1262.85 653.944C1262.85 654.681 1262.11 655.418 1261.38 655.418C1260.64 655.418 1259.9 654.681 1259.9 653.944Z" fill="white"/>
<path opacity="0.7" d="M1432.67 724.493C1432.67 723.02 1433.4 722.283 1434.88 722.283C1436.35 722.283 1437.09 723.02 1437.09 724.493C1437.09 725.967 1436.35 726.704 1434.88 726.704C1433.4 726.704 1432.67 725.967 1432.67 724.493Z" fill="white"/>
<path opacity="0.7" d="M1091.5 708.528C1091.5 706.317 1093.72 704.107 1095.93 704.107C1098.14 704.107 1100.36 706.317 1100.36 708.528C1100.36 710.738 1098.14 712.949 1095.93 712.949C1093.72 712.212 1091.5 710.738 1091.5 708.528Z" fill="white"/>
<path opacity="0.7" d="M1219.29 791.225C1219.29 790.488 1220.03 789.751 1220.76 789.751C1221.5 789.751 1222.24 790.488 1222.24 791.225C1222.24 791.962 1221.5 792.699 1220.76 792.699C1220.03 793.435 1219.29 792.699 1219.29 791.225Z" fill="white"/>
<path opacity="0.7" d="M1135.28 663.495C1135.28 662.758 1136.02 662.021 1136.76 662.021C1137.5 662.021 1138.23 662.758 1138.23 663.495C1138.23 664.232 1137.5 664.969 1136.76 664.969C1136.02 664.969 1135.28 664.232 1135.28 663.495Z" fill="white"/>
<path opacity="0.7" d="M414.786 792.35C414.786 791.613 415.524 790.876 416.261 790.876C416.999 790.876 417.736 791.613 417.736 792.35C417.736 793.086 416.999 793.823 416.261 793.823C415.524 793.823 414.786 793.086 414.786 792.35Z" fill="white"/>
<path opacity="0.7" d="M379.153 630.322C379.153 629.585 379.89 628.848 380.628 628.848C381.366 628.848 382.103 629.585 382.103 630.322C382.103 631.058 381.366 631.795 380.628 631.795C379.89 631.795 379.153 631.058 379.153 630.322Z" fill="white"/>
<path opacity="0.7" d="M601.09 651.815C601.09 651.079 601.828 650.342 602.565 650.342C603.303 650.342 604.041 651.079 604.041 651.815C604.041 652.552 603.303 653.289 602.565 653.289C601.828 653.289 601.09 652.552 601.09 651.815Z" fill="white"/>
<path opacity="0.7" d="M287.544 699.194C287.544 698.458 288.281 697.721 289.019 697.721C289.756 697.721 290.494 698.458 290.494 699.194C290.494 699.931 289.756 700.668 289.019 700.668C288.281 701.405 287.544 700.668 287.544 699.194Z" fill="white"/>
<path opacity="0.7" d="M414.175 693.522C414.175 692.048 415.65 690.575 417.126 690.575C418.601 690.575 420.076 692.048 420.076 693.522C420.076 694.995 418.601 696.469 417.126 696.469C415.65 696.469 414.175 694.995 414.175 693.522Z" fill="white"/>
<path opacity="0.7" d="M456.218 846.301C456.218 844.828 457.694 843.354 459.169 843.354C460.644 843.354 462.12 844.828 462.12 846.301C462.12 847.775 460.644 849.249 459.169 849.249C457.694 849.249 456.218 847.775 456.218 846.301Z" fill="white"/>
<path opacity="0.7" d="M419.058 616.228C419.058 615.491 419.796 614.754 420.533 614.754C421.271 614.754 422.009 615.491 422.009 616.228C422.009 616.964 421.271 617.701 420.533 617.701C419.796 617.701 419.058 616.964 419.058 616.228Z" fill="white"/>
<path opacity="0.7" d="M358.121 1022.48C358.121 1021.74 358.859 1021 359.596 1021C360.334 1021 361.072 1021.74 361.072 1022.48C361.072 1023.21 360.334 1023.95 359.596 1023.95C358.859 1023.95 358.121 1023.21 358.121 1022.48Z" fill="white"/>
<path opacity="0.7" d="M372.17 925.831C372.17 925.095 372.908 924.358 373.646 924.358C374.383 924.358 375.121 925.095 375.121 925.831C375.121 926.568 374.383 927.305 373.646 927.305C372.908 927.305 372.17 926.568 372.17 925.831Z" fill="white"/>
<path opacity="0.7" d="M528.773 870.853C528.773 869.38 530.248 867.906 531.723 867.906C533.198 867.906 534.674 869.38 534.674 870.853C534.674 872.327 533.198 873.8 531.723 873.8C530.248 873.8 528.773 872.327 528.773 870.853Z" fill="white"/>
<path opacity="0.7" d="M573.232 758.051C573.232 757.314 573.969 756.577 574.707 756.577C575.445 756.577 576.182 757.314 576.182 758.051C576.182 758.788 575.445 759.524 574.707 759.524C573.969 759.524 573.232 758.788 573.232 758.051Z" fill="white"/>
<path opacity="0.7" d="M1387.87 664.536C1387.87 663.063 1388.6 662.326 1390.08 662.326C1391.55 662.326 1392.29 663.063 1392.29 664.536C1392.29 666.01 1391.55 666.747 1390.08 666.747C1388.6 666.747 1387.87 666.01 1387.87 664.536Z" fill="white"/>
<path opacity="0.7" d="M798.16 806.428C798.16 804.218 800.372 802.007 802.585 802.007C804.798 802.007 807.011 804.218 807.011 806.428C807.011 808.639 804.798 810.849 802.585 810.849C800.372 810.112 798.16 808.639 798.16 806.428Z" fill="white"/>
<path opacity="0.7" d="M849.371 815.657C849.371 814.92 850.108 814.183 850.846 814.183C851.584 814.183 852.321 814.92 852.321 815.657C852.321 816.394 851.584 817.13 850.846 817.13C850.108 817.13 849.371 816.394 849.371 815.657Z" fill="white"/>
<path opacity="0.7" d="M930.571 995.624C930.571 994.888 931.308 994.151 932.046 994.151C932.784 994.151 933.521 994.888 933.521 995.624C933.521 996.361 932.784 997.098 932.046 997.098C931.308 997.835 930.571 997.098 930.571 995.624Z" fill="white"/>
<path opacity="0.7" d="M813.004 653.589C813.004 652.853 813.742 652.116 814.479 652.116C815.217 652.116 815.955 652.853 815.955 653.589C815.955 654.326 815.217 655.063 814.479 655.063C813.742 655.063 813.004 654.326 813.004 653.589Z" fill="white"/>
<path opacity="0.7" d="M896.512 694.223C896.512 693.486 897.25 692.749 897.988 692.749C898.725 692.749 899.463 693.486 899.463 694.223C899.463 694.96 898.725 695.697 897.988 695.697C897.25 695.697 896.512 694.96 896.512 694.223Z" fill="white"/>
<path opacity="0.7" d="M704.552 623.423C704.552 622.686 705.29 621.95 706.028 621.95C706.765 621.95 707.503 622.686 707.503 623.423C707.503 624.16 706.765 624.897 706.028 624.897C705.29 624.897 704.552 624.16 704.552 623.423Z" fill="white"/>
<path opacity="0.7" d="M934.388 731.673C934.388 730.937 935.125 730.2 935.863 730.2C936.601 730.2 937.338 730.937 937.338 731.673C937.338 732.41 936.601 733.147 935.863 733.147C935.125 733.884 934.388 733.147 934.388 731.673Z" fill="white"/>
<path opacity="0.7" d="M692.912 840.47C692.912 839.734 693.649 838.997 694.387 838.997C695.125 838.997 695.862 839.734 695.862 840.47C695.862 841.207 695.125 841.944 694.387 841.944C693.649 841.944 692.912 841.207 692.912 840.47Z" fill="white"/>
<path opacity="0.7" d="M856.553 888.354C856.553 887.617 857.291 886.88 858.028 886.88C858.766 886.88 859.504 887.617 859.504 888.354C859.504 889.09 858.766 889.827 858.028 889.827C857.291 889.827 856.553 889.09 856.553 888.354Z" fill="white"/>
<path opacity="0.7" d="M1042.71 819.465C1042.71 817.991 1044.18 816.517 1045.66 816.517C1047.13 816.517 1048.61 817.991 1048.61 819.465C1048.61 820.938 1047.13 822.412 1045.66 822.412C1044.18 822.412 1042.71 820.938 1042.71 819.465Z" fill="white"/>
<path opacity="0.7" d="M1010.38 857.575C1010.38 856.101 1011.85 854.628 1013.33 854.628C1014.8 854.628 1016.28 856.101 1016.28 857.575C1016.28 859.048 1014.8 860.522 1013.33 860.522C1011.85 860.522 1010.38 859.048 1010.38 857.575Z" fill="white"/>
<path opacity="0.7" d="M1045.26 661.696C1045.26 660.223 1046.73 658.749 1048.21 658.749C1049.69 658.749 1051.16 660.223 1051.16 661.696C1051.16 663.17 1049.69 664.644 1048.21 664.644C1046.73 664.644 1045.26 663.17 1045.26 661.696Z" fill="white"/>
<path opacity="0.7" d="M890.805 869.609C890.805 868.135 892.28 866.661 893.755 866.661C895.231 866.661 896.706 868.135 896.706 869.609C896.706 871.082 895.231 872.556 893.755 872.556C892.28 872.556 890.805 871.082 890.805 869.609Z" fill="white"/>
<path opacity="0.7" d="M965.503 675.089C965.503 673.615 966.241 672.879 967.716 672.879C969.191 672.879 969.929 673.615 969.929 675.089C969.929 676.563 969.191 677.299 967.716 677.299C966.241 677.299 965.503 676.563 965.503 675.089Z" fill="white"/>
<path opacity="0.7" d="M746.615 748.324C746.615 746.113 748.828 743.903 751.041 743.903C753.254 743.903 755.467 746.113 755.467 748.324C755.467 750.534 753.254 752.744 751.041 752.744C748.09 752.744 746.615 751.271 746.615 748.324Z" fill="white"/>
<path opacity="0.7" d="M948.492 909.556C948.492 908.082 949.23 907.346 950.705 907.346C952.18 907.346 952.918 908.082 952.918 909.556C952.918 911.03 952.18 911.766 950.705 911.766C949.967 911.766 948.492 911.03 948.492 909.556Z" fill="white"/>
<path opacity="0.7" d="M982.959 996.958C982.959 996.221 983.697 995.484 984.434 995.484C985.172 995.484 985.91 996.221 985.91 996.958C985.91 997.695 985.172 998.432 984.434 998.432C983.697 998.432 982.959 997.695 982.959 996.958Z" fill="white"/>
<path opacity="0.7" d="M806.015 949.099C806.015 948.362 806.753 947.625 807.491 947.625C808.228 947.625 808.966 948.362 808.966 949.099C808.966 949.836 808.228 950.573 807.491 950.573C806.753 950.573 806.015 949.836 806.015 949.099Z" fill="white"/>
<path opacity="0.7" d="M733.358 952.504C732.543 952.504 731.883 953.164 731.883 953.978C731.883 954.791 732.543 955.451 733.358 955.451C734.173 955.451 734.833 954.791 734.833 953.978C734.833 953.164 734.173 952.504 733.358 952.504Z" fill="white"/>
<path opacity="0.7" d="M861.101 955.085C861.101 953.611 862.577 952.138 864.052 952.138C865.527 952.138 867.002 953.611 867.002 955.085C867.002 956.559 865.527 958.032 864.052 958.032C861.839 958.032 861.101 956.559 861.101 955.085Z" fill="white"/>
<path opacity="0.7" d="M908.363 996.727C908.363 995.253 909.838 993.779 911.314 993.779C912.789 993.779 914.264 995.253 914.264 996.727C914.264 998.2 912.789 999.674 911.314 999.674C909.101 999.674 908.363 998.937 908.363 996.727Z" fill="white"/>
<path opacity="0.7" d="M987.678 964.046C987.678 962.573 988.415 961.836 989.891 961.836C991.366 961.836 992.104 962.573 992.104 964.046C992.104 965.52 991.366 966.257 989.891 966.257C989.153 966.257 987.678 965.52 987.678 964.046Z" fill="white"/>
<path opacity="0.7" d="M853.143 1007.01C853.143 1005.53 853.881 1004.8 855.356 1004.8C856.831 1004.8 857.569 1005.53 857.569 1007.01C857.569 1008.48 856.831 1009.22 855.356 1009.22C854.618 1009.22 853.143 1008.48 853.143 1007.01Z" fill="white"/>
<path opacity="0.7" d="M1037.25 976.417C1037.25 974.206 1039.46 971.996 1041.68 971.996C1043.89 971.996 1046.1 974.206 1046.1 976.417C1046.1 978.627 1043.89 980.838 1041.68 980.838C1038.73 980.838 1037.25 978.627 1037.25 976.417Z" fill="white"/>
<path opacity="0.7" d="M834.193 713.017C834.193 712.281 834.93 711.544 835.668 711.544C836.406 711.544 837.143 712.281 837.143 713.017C837.143 713.754 836.406 714.491 835.668 714.491C834.93 714.491 834.193 713.754 834.193 713.017Z" fill="white"/>
<path opacity="0.7" d="M996.742 643.56C996.742 642.086 997.479 641.349 998.955 641.349C1000.43 641.349 1001.17 642.086 1001.17 643.56C1001.17 645.034 1000.43 645.77 998.955 645.77C997.479 645.77 996.742 645.034 996.742 643.56Z" fill="white"/>
<path opacity="0.7" d="M777.337 891.642C777.337 889.431 779.549 887.221 781.762 887.221C783.975 887.221 786.188 889.431 786.188 891.642C786.188 893.852 783.975 896.062 781.762 896.062C779.549 896.062 777.337 893.852 777.337 891.642Z" fill="white"/>
<path opacity="0.7" d="M732.46 957.04C732.46 955.566 733.935 954.093 735.41 954.093C736.886 954.093 738.361 955.566 738.361 957.04C738.361 958.513 736.886 959.987 735.41 959.987C733.197 959.987 732.46 958.513 732.46 957.04Z" fill="white"/>
<path opacity="0.7" d="M710.444 871.742C710.444 870.269 711.919 868.795 713.394 868.795C714.87 868.795 716.345 870.269 716.345 871.742C716.345 873.216 714.87 874.69 713.394 874.69C711.919 874.69 710.444 873.216 710.444 871.742Z" fill="white"/>
<path opacity="0.7" d="M661.146 854.301C661.146 852.828 661.883 852.091 663.358 852.091C664.834 852.091 665.571 852.828 665.571 854.301C665.571 855.775 664.834 856.512 663.358 856.512C662.621 856.512 661.146 855.038 661.146 854.301Z" fill="white"/>
<path opacity="0.7" d="M442.234 927.955C442.234 928.692 441.497 929.429 440.759 929.429C440.021 929.429 439.284 928.692 439.284 927.955C439.284 927.218 440.021 926.481 440.759 926.481C441.497 925.745 442.234 926.481 442.234 927.955Z" fill="white"/>
<path opacity="0.7" d="M598.724 902.406C598.724 903.142 597.986 903.879 597.248 903.879C596.511 903.879 595.773 903.142 595.773 902.406C595.773 901.669 596.511 900.932 597.248 900.932C597.986 900.932 598.724 901.669 598.724 902.406Z" fill="white"/>
<path opacity="0.7" d="M442.871 1026.05C442.871 1027.52 441.396 1028.99 439.921 1028.99C438.445 1028.99 436.97 1027.52 436.97 1026.05C436.97 1024.57 438.445 1023.1 439.921 1023.1C441.396 1023.1 442.871 1024.57 442.871 1026.05Z" fill="white"/>
<path opacity="0.7" d="M484.882 793.737C484.882 794.474 484.144 795.211 483.406 795.211C482.668 795.211 481.931 794.474 481.931 793.737C481.931 793 482.668 792.264 483.406 792.264C484.144 792.264 484.882 793 484.882 793.737Z" fill="white"/>
<path opacity="0.7" d="M463.864 634.627C463.864 636.101 462.388 637.574 460.913 637.574C459.438 637.574 457.963 636.101 457.963 634.627C457.963 633.153 459.438 631.68 460.913 631.68C462.388 631.68 463.864 632.417 463.864 634.627Z" fill="white"/>
<path opacity="0.7" d="M571.262 1001.2C571.262 1002.68 569.787 1004.15 568.312 1004.15C566.836 1004.15 565.361 1002.68 565.361 1001.2C565.361 999.731 566.836 998.257 568.312 998.257C569.787 998.257 571.262 999.731 571.262 1001.2Z" fill="white"/>
<path opacity="0.7" d="M658.496 710.735C658.496 712.209 657.021 713.683 655.546 713.683C654.07 713.683 652.595 712.209 652.595 710.735C652.595 709.262 654.07 707.788 655.546 707.788C657.759 707.788 658.496 709.262 658.496 710.735Z" fill="white"/>
<path opacity="0.7" d="M645.514 787.436C645.514 789.646 643.301 791.857 641.089 791.857C638.876 791.857 636.663 789.646 636.663 787.436C636.663 785.225 638.876 783.015 641.089 783.015C644.039 783.752 645.514 785.225 645.514 787.436Z" fill="white"/>
<path opacity="0.7" d="M96.1214 770.134C96.1214 768.66 96.8591 767.923 98.3344 767.923C99.8096 767.923 100.547 768.66 100.547 770.134C100.547 771.607 99.8096 772.344 98.3344 772.344C97.5967 772.344 96.1214 771.607 96.1214 770.134Z" fill="white"/>
<path opacity="0.7" d="M142.982 777.772C142.982 777.035 143.72 776.299 144.458 776.299C145.195 776.299 145.933 777.035 145.933 777.772C145.933 778.509 145.195 779.246 144.458 779.246C143.72 779.246 142.982 778.509 142.982 777.772Z" fill="white"/>
<path opacity="0.7" d="M5.51381 765.234C5.51381 764.498 6.25145 763.761 6.98912 763.761C7.72678 763.761 8.46442 764.498 8.46442 765.234C8.46442 765.971 7.72678 766.708 6.98912 766.708C6.25145 767.445 5.51381 766.708 5.51381 765.234Z" fill="white"/>
<path opacity="0.7" d="M107.35 615.744C107.35 615.008 108.088 614.271 108.826 614.271C109.563 614.271 110.301 615.008 110.301 615.744C110.301 616.481 109.563 617.218 108.826 617.218C108.088 617.218 107.35 616.481 107.35 615.744Z" fill="white"/>
<path opacity="0.7" d="M150.165 850.469C150.165 849.732 150.902 848.996 151.64 848.996C152.378 848.996 153.115 849.732 153.115 850.469C153.115 851.206 152.378 851.943 151.64 851.943C150.902 851.943 150.165 851.206 150.165 850.469Z" fill="white"/>
<path opacity="0.7" d="M182.707 753.379C182.707 751.906 183.445 751.169 184.92 751.169C186.396 751.169 187.133 751.906 187.133 753.379C187.133 754.853 186.396 755.59 184.92 755.59C184.183 755.59 182.707 754.853 182.707 753.379Z" fill="white"/>
<path opacity="0.7" d="M303.99 819.69C303.99 818.217 305.465 816.743 306.94 816.743C308.416 816.743 309.891 818.217 309.891 819.69C309.891 821.164 308.416 822.638 306.94 822.638C305.465 822.638 303.99 821.164 303.99 819.69Z" fill="white"/>
<path opacity="0.7" d="M184.416 831.724C184.416 830.251 185.892 828.777 187.367 828.777C188.842 828.777 190.318 830.251 190.318 831.724C190.318 833.198 188.842 834.671 187.367 834.671C185.892 834.671 184.416 833.198 184.416 831.724Z" fill="white"/>
<path opacity="0.7" d="M86.3187 1007.9C86.3187 1007.16 87.0563 1006.43 87.7939 1006.43C88.5316 1006.43 89.2693 1007.16 89.2693 1007.9C89.2693 1008.64 88.5316 1009.37 87.7939 1009.37C87.0563 1009.37 86.3187 1008.64 86.3187 1007.9Z" fill="white"/>
<path opacity="0.7" d="M100.367 911.254C100.367 910.518 101.105 909.781 101.842 909.781C102.58 909.781 103.317 910.518 103.317 911.254C103.317 911.991 102.58 912.728 101.842 912.728C101.105 912.728 100.367 911.991 100.367 911.254Z" fill="white"/>
<path opacity="0.7" d="M26.2357 916.133C26.2357 915.396 26.9734 914.659 27.711 914.659C28.4487 914.659 29.1863 915.396 29.1863 916.133C29.1863 916.869 28.4487 917.606 27.711 917.606C26.9734 917.606 26.2357 916.869 26.2357 916.133Z" fill="white"/>
<path opacity="0.7" d="M154.713 917.2C154.713 915.727 156.188 914.253 157.664 914.253C159.139 914.253 160.614 915.727 160.614 917.2C160.614 918.674 159.139 920.148 157.664 920.148C156.188 920.148 154.713 918.674 154.713 917.2Z" fill="white"/>
<path opacity="0.7" d="M201.975 958.842C201.975 957.368 203.45 955.895 204.925 955.895C206.4 955.895 207.876 957.368 207.876 958.842C207.876 960.316 206.4 961.789 204.925 961.789C203.45 961.789 201.975 961.052 201.975 958.842Z" fill="white"/>
<path opacity="0.7" d="M317.885 1015.23C317.885 1013.76 319.36 1012.29 320.835 1012.29C322.311 1012.29 323.786 1013.76 323.786 1015.23C323.786 1016.71 322.311 1018.18 320.835 1018.18C319.36 1018.18 317.885 1017.44 317.885 1015.23Z" fill="white"/>
<path opacity="0.7" d="M121.777 732.364C121.777 731.627 122.514 730.89 123.252 730.89C123.989 730.89 124.727 731.627 124.727 732.364C124.727 733.101 123.989 733.838 123.252 733.838C122.514 734.575 121.777 733.838 121.777 732.364Z" fill="white"/>
<path opacity="0.7" d="M560.72 702.118C560.72 700.645 562.195 699.171 563.67 699.171C565.146 699.171 566.621 700.645 566.621 702.118C566.621 703.592 565.146 705.066 563.67 705.066C562.195 705.066 560.72 704.329 560.72 702.118Z" fill="white"/>
<path opacity="0.7" d="M290.353 605.675C290.353 604.202 291.091 603.465 292.566 603.465C294.042 603.465 294.779 604.202 294.779 605.675C294.779 607.149 294.042 607.886 292.566 607.886C291.091 607.886 290.353 607.149 290.353 605.675Z" fill="white"/>
<path opacity="0.7" d="M744.111 684.732C744.111 682.522 746.324 680.311 748.537 680.311C750.75 680.311 752.963 682.522 752.963 684.732C752.963 686.942 750.75 689.153 748.537 689.153C745.587 688.416 744.111 686.942 744.111 684.732Z" fill="white"/>
<g opacity="0.7">
<path opacity="0.7" d="M644.152 1008.94L643.414 993.464L627.186 991.991L642.677 991.254L644.152 975.044L645.627 991.254L661.118 991.991L645.627 993.464L644.152 1008.94Z" fill="white"/>
<path opacity="0.7" d="M637.514 999.358L642.678 992.727L637.514 985.359L644.153 991.254L651.53 984.622L645.629 991.99L651.53 999.358L644.153 993.464L637.514 999.358Z" fill="white"/>
</g>
<g opacity="0.7">
<path opacity="0.7" d="M809.661 1049.54L808.185 1034.07L792.695 1032.6L808.185 1031.86L809.661 1015.65L811.136 1031.86L826.626 1032.6L811.136 1034.07L809.661 1049.54Z" fill="white"/>
</g>
<g opacity="0.7">
<path opacity="0.7" d="M724.361 637.67L723.623 627.355L712.558 625.881H723.623L724.361 614.092L725.098 625.881H736.163L725.098 627.355L724.361 637.67Z" fill="white"/>
<path opacity="0.7" d="M719.932 631.039L723.621 626.618L719.932 621.461L724.358 625.882L729.522 621.461L725.096 626.618L729.522 631.039L724.358 627.355L719.932 631.039Z" fill="white"/>
</g>
<g opacity="0.7">
<path opacity="0.7" d="M702.966 684.893L701.491 670.157L686 667.947H701.491L702.966 651L704.441 667.947H719.932L704.441 670.157L702.966 684.893Z" fill="white"/>
<path opacity="0.7" d="M82.2475 637.537L87.4111 630.169L82.2475 622.801L88.8864 628.695L96.2628 622.801L89.624 630.169L96.2628 636.8L88.8864 631.642L82.2475 637.537Z" fill="white"/>
</g>
<g opacity="0.7">
<path opacity="0.7" d="M209.278 793.037L208.541 781.985L197.476 781.248L208.541 780.512L209.278 769.46L210.016 780.512L221.081 781.248L210.016 781.985L209.278 793.037Z" fill="white"/>
<path opacity="0.7" d="M204.85 786.407L208.538 781.249L204.85 776.091L209.276 780.512L214.439 776.091L210.014 781.249L214.439 785.67L209.276 781.986L204.85 786.407Z" fill="white"/>
</g>
<g opacity="0.7">
<path opacity="0.7" d="M369.106 732.987L368.369 721.935L357.304 721.198L368.369 720.462L369.106 709.409L369.844 720.462L380.909 721.198L369.844 721.935L369.106 732.987Z" fill="white"/>
<path opacity="0.7" d="M364.678 726.357L368.366 721.199L364.678 716.041L369.104 720.462L374.267 716.041L369.842 721.199L374.267 725.62L369.104 721.936L364.678 726.357Z" fill="white"/>
</g>
<path opacity="0.7" d="M1193.63 547.307C1193.63 545.833 1194.37 545.097 1195.85 545.097C1197.32 545.097 1198.06 545.833 1198.06 547.307C1198.06 548.781 1197.32 549.517 1195.85 549.517C1195.11 549.517 1193.63 548.781 1193.63 547.307Z" fill="white"/>
<path opacity="0.7" d="M1103.03 542.408C1103.03 541.671 1103.77 540.934 1104.5 540.934C1105.24 540.934 1105.98 541.671 1105.98 542.408C1105.98 543.145 1105.24 543.881 1104.5 543.881C1103.77 544.618 1103.03 543.881 1103.03 542.408Z" fill="white"/>
<path opacity="0.7" d="M262.651 468.561C262.651 467.824 263.389 467.087 264.126 467.087C264.864 467.087 265.602 467.824 265.602 468.561C265.602 469.297 264.864 470.034 264.126 470.034C263.389 470.034 262.651 469.297 262.651 468.561Z" fill="white"/>
<path opacity="0.7" d="M1084.78 579.799C1084.78 579.062 1085.51 578.325 1086.25 578.325C1086.99 578.325 1087.73 579.062 1087.73 579.799C1087.73 580.536 1086.99 581.273 1086.25 581.273C1085.51 581.273 1084.78 580.536 1084.78 579.799Z" fill="white"/>
<path opacity="0.7" d="M1014.46 486.086C1014.46 484.613 1015.93 483.139 1017.41 483.139C1018.88 483.139 1020.36 484.613 1020.36 486.086C1020.36 487.56 1018.88 489.034 1017.41 489.034C1015.2 489.034 1014.46 487.56 1014.46 486.086Z" fill="white"/>
<path opacity="0.7" d="M1281.93 608.898C1281.93 607.424 1283.4 605.95 1284.88 605.95C1286.35 605.95 1287.83 607.424 1287.83 608.898C1287.83 610.371 1286.35 611.845 1284.88 611.845C1283.4 611.845 1281.93 610.371 1281.93 608.898Z" fill="white"/>
<path opacity="0.7" d="M1219.29 509.537C1219.29 508.801 1220.03 508.064 1220.76 508.064C1221.5 508.064 1222.24 508.801 1222.24 509.537C1222.24 510.274 1221.5 511.011 1220.76 511.011C1220.03 511.748 1219.29 511.011 1219.29 509.537Z" fill="white"/>
<path opacity="0.7" d="M414.786 510.662C414.786 509.925 415.524 509.188 416.261 509.188C416.999 509.188 417.736 509.925 417.736 510.662C417.736 511.399 416.999 512.136 416.261 512.136C415.524 512.136 414.786 511.399 414.786 510.662Z" fill="white"/>
<path opacity="0.7" d="M456.218 564.614C456.218 563.14 457.694 561.666 459.169 561.666C460.644 561.666 462.12 563.14 462.12 564.614C462.12 566.087 460.644 567.561 459.169 567.561C457.694 567.561 456.218 566.087 456.218 564.614Z" fill="white"/>
<path opacity="0.7" d="M528.773 589.166C528.773 587.692 530.248 586.218 531.723 586.218C533.198 586.218 534.674 587.692 534.674 589.166C534.674 590.639 533.198 592.113 531.723 592.113C530.248 592.113 528.773 590.639 528.773 589.166Z" fill="white"/>
<path opacity="0.7" d="M573.232 476.363C573.232 475.626 573.969 474.89 574.707 474.89C575.445 474.89 576.182 475.626 576.182 476.363C576.182 477.1 575.445 477.837 574.707 477.837C573.969 477.837 573.232 477.1 573.232 476.363Z" fill="white"/>
<path opacity="0.7" d="M798.16 524.741C798.16 522.53 800.372 520.32 802.585 520.32C804.798 520.32 807.011 522.53 807.011 524.741C807.011 526.951 804.798 529.161 802.585 529.161C800.372 528.425 798.16 526.951 798.16 524.741Z" fill="white"/>
<path opacity="0.7" d="M849.371 533.969C849.371 533.232 850.108 532.496 850.846 532.496C851.584 532.496 852.321 533.232 852.321 533.969C852.321 534.706 851.584 535.443 850.846 535.443C850.108 535.443 849.371 534.706 849.371 533.969Z" fill="white"/>
<path opacity="0.7" d="M934.388 449.986C934.388 449.249 935.125 448.512 935.863 448.512C936.601 448.512 937.338 449.249 937.338 449.986C937.338 450.723 936.601 451.459 935.863 451.459C935.125 452.196 934.388 451.459 934.388 449.986Z" fill="white"/>
<path opacity="0.7" d="M692.912 558.783C692.912 558.046 693.649 557.309 694.387 557.309C695.125 557.309 695.862 558.046 695.862 558.783C695.862 559.52 695.125 560.256 694.387 560.256C693.649 560.256 692.912 559.52 692.912 558.783Z" fill="white"/>
<path opacity="0.7" d="M856.553 606.666C856.553 605.929 857.291 605.192 858.028 605.192C858.766 605.192 859.504 605.929 859.504 606.666C859.504 607.403 858.766 608.14 858.028 608.14C857.291 608.14 856.553 607.403 856.553 606.666Z" fill="white"/>
<path opacity="0.7" d="M1042.71 537.777C1042.71 536.303 1044.18 534.83 1045.66 534.83C1047.13 534.83 1048.61 536.303 1048.61 537.777C1048.61 539.251 1047.13 540.724 1045.66 540.724C1044.18 540.724 1042.71 539.251 1042.71 537.777Z" fill="white"/>
<path opacity="0.7" d="M1010.38 575.887C1010.38 574.414 1011.85 572.94 1013.33 572.94C1014.8 572.94 1016.28 574.414 1016.28 575.887C1016.28 577.361 1014.8 578.835 1013.33 578.835C1011.85 578.835 1010.38 577.361 1010.38 575.887Z" fill="white"/>
<path opacity="0.7" d="M890.805 587.921C890.805 586.447 892.28 584.974 893.755 584.974C895.231 584.974 896.706 586.447 896.706 587.921C896.706 589.395 895.231 590.868 893.755 590.868C892.28 590.868 890.805 589.395 890.805 587.921Z" fill="white"/>
<path opacity="0.7" d="M746.615 466.636C746.615 464.426 748.828 462.215 751.041 462.215C753.254 462.215 755.467 464.426 755.467 466.636C755.467 468.846 753.254 471.057 751.041 471.057C748.09 471.057 746.615 469.583 746.615 466.636Z" fill="white"/>
<path opacity="0.7" d="M777.337 609.954C777.337 607.744 779.549 605.533 781.762 605.533C783.975 605.533 786.188 607.744 786.188 609.954C786.188 612.164 783.975 614.375 781.762 614.375C779.549 614.375 777.337 612.164 777.337 609.954Z" fill="white"/>
<path opacity="0.7" d="M710.444 590.055C710.444 588.581 711.919 587.108 713.394 587.108C714.87 587.108 716.345 588.581 716.345 590.055C716.345 591.528 714.87 593.002 713.394 593.002C711.919 593.002 710.444 591.528 710.444 590.055Z" fill="white"/>
<path opacity="0.7" d="M661.146 572.614C661.146 571.14 661.883 570.403 663.358 570.403C664.834 570.403 665.571 571.14 665.571 572.614C665.571 574.087 664.834 574.824 663.358 574.824C662.621 574.824 661.146 573.35 661.146 572.614Z" fill="white"/>
<path opacity="0.7" d="M598.724 620.718C598.724 621.455 597.986 622.192 597.248 622.192C596.511 622.192 595.773 621.455 595.773 620.718C595.773 619.981 596.511 619.244 597.248 619.244C597.986 619.244 598.724 619.981 598.724 620.718Z" fill="white"/>
<path opacity="0.7" d="M484.882 512.05C484.882 512.786 484.144 513.523 483.406 513.523C482.668 513.523 481.931 512.786 481.931 512.05C481.931 511.313 482.668 510.576 483.406 510.576C484.144 510.576 484.882 511.313 484.882 512.05Z" fill="white"/>
<path opacity="0.7" d="M645.514 505.748C645.514 507.959 643.301 510.169 641.089 510.169C638.876 510.169 636.663 507.959 636.663 505.748C636.663 503.538 638.876 501.327 641.089 501.327C644.039 502.064 645.514 503.538 645.514 505.748Z" fill="white"/>
<path opacity="0.7" d="M96.1214 488.446C96.1214 486.972 96.8591 486.236 98.3344 486.236C99.8096 486.236 100.547 486.972 100.547 488.446C100.547 489.92 99.8096 490.656 98.3344 490.656C97.5967 490.656 96.1214 489.92 96.1214 488.446Z" fill="white"/>
<path opacity="0.7" d="M142.982 496.085C142.982 495.348 143.72 494.611 144.458 494.611C145.195 494.611 145.933 495.348 145.933 496.085C145.933 496.822 145.195 497.558 144.458 497.558C143.72 497.558 142.982 496.822 142.982 496.085Z" fill="white"/>
<path opacity="0.7" d="M5.51381 483.547C5.51381 482.81 6.25145 482.073 6.98912 482.073C7.72678 482.073 8.46442 482.81 8.46442 483.547C8.46442 484.284 7.72678 485.02 6.98912 485.02C6.25145 485.757 5.51381 485.02 5.51381 483.547Z" fill="white"/>
<path opacity="0.7" d="M150.165 568.782C150.165 568.045 150.902 567.308 151.64 567.308C152.378 567.308 153.115 568.045 153.115 568.782C153.115 569.518 152.378 570.255 151.64 570.255C150.902 570.255 150.165 569.518 150.165 568.782Z" fill="white"/>
<path opacity="0.7" d="M182.707 471.692C182.707 470.218 183.445 469.481 184.92 469.481C186.396 469.481 187.133 470.218 187.133 471.692C187.133 473.165 186.396 473.902 184.92 473.902C184.183 473.902 182.707 473.165 182.707 471.692Z" fill="white"/>
<path opacity="0.7" d="M303.99 538.003C303.99 536.529 305.465 535.056 306.94 535.056C308.416 535.056 309.891 536.529 309.891 538.003C309.891 539.476 308.416 540.95 306.94 540.95C305.465 540.95 303.99 539.476 303.99 538.003Z" fill="white"/>
<path opacity="0.7" d="M184.416 550.037C184.416 548.563 185.892 547.089 187.367 547.089C188.842 547.089 190.318 548.563 190.318 550.037C190.318 551.51 188.842 552.984 187.367 552.984C185.892 552.984 184.416 551.51 184.416 550.037Z" fill="white"/>
<path opacity="0.7" d="M121.777 450.677C121.777 449.94 122.514 449.203 123.252 449.203C123.989 449.203 124.727 449.94 124.727 450.677C124.727 451.413 123.989 452.15 123.252 452.15C122.514 452.887 121.777 452.15 121.777 450.677Z" fill="white"/>
<g opacity="0.7">
<path opacity="0.7" d="M209.278 511.35L208.541 500.298L197.476 499.561L208.541 498.824L209.278 487.772L210.016 498.824L221.081 499.561L210.016 500.298L209.278 511.35Z" fill="white"/>
<path opacity="0.7" d="M204.85 504.719L208.538 499.561L204.85 494.404L209.276 498.825L214.439 494.404L210.014 499.561L214.439 503.982L209.276 500.298L204.85 504.719Z" fill="white"/>
</g>
<g opacity="0.7">
<path opacity="0.7" d="M369.106 451.3L368.369 440.248L357.304 439.511L368.369 438.774L369.106 427.722L369.844 438.774L380.909 439.511L369.844 440.248L369.106 451.3Z" fill="white"/>
<path opacity="0.7" d="M364.678 444.669L368.366 439.511L364.678 434.354L369.104 438.775L374.267 434.354L369.842 439.511L374.267 443.932L369.104 440.248L364.678 444.669Z" fill="white"/>
</g>
<g opacity="0.7">
<path opacity="0.7" d="M286.447 1020.75L284.972 1010.44L274.645 1008.96H284.972L286.447 997.173L287.185 1008.96H298.25L287.185 1010.44L286.447 1020.75Z" fill="white"/>
<path opacity="0.7" d="M281.282 1014.12L284.97 1009.7L281.282 1004.54L285.707 1008.23L291.608 1004.54L287.183 1008.96L291.608 1014.12L286.445 1010.44L281.282 1014.12Z" fill="white"/>
</g>
</svg>
